<svg width="470" height="332" viewBox="0 0 470 332" fill="none" xmlns="http://www.w3.org/2000/svg">
<path d="M0 14.6471V4.88235H0.5V0.5H4.86097V0H14.5832V0.5H24.3054V0H34.0276V0.5H43.7499V0H53.4721V0.5H63.1943V0H72.9166V0.5H82.6388V0H92.361V0.5H102.083V0H111.805V0.5H121.528V0H131.25V0.5H140.972V0H150.694V0.5H160.417V0H170.139V0.5H179.861V0H189.583V0.5H199.306V0H209.028V0.5H218.75V0H228.472V0.5H238.194V0H247.917V0.5H257.639V0H267.361V0.5H277.083V0H286.806V0.5H296.528V0H306.25V0.5H315.972V0H325.694V0.5H335.417V0H345.139V0.5H350C351.748 0.5 353.488 0.537545 355.218 0.611871L355.24 0.112332C358.759 0.263525 362.239 0.566291 365.673 1.01427L365.608 1.51007C369.08 1.96292 372.505 2.56477 375.876 3.30899L375.984 2.82075C379.412 3.57746 382.785 4.48075 386.096 5.52372L385.945 6.00061C389.277 7.04996 392.545 8.24129 395.743 9.56752L395.935 9.10565C399.171 10.4476 402.335 11.9271 405.421 13.5368L405.19 13.9801C408.28 15.5919 411.29 17.3347 414.214 19.2013L414.483 18.7799C417.43 20.6612 420.29 22.6678 423.054 24.7921L422.749 25.1885C425.508 27.3086 428.172 29.5463 430.733 31.8943L431.071 31.5258C433.644 33.8853 436.115 36.3556 438.474 38.9292L438.106 39.267C440.454 41.8281 442.691 44.4917 444.811 47.2506L445.208 46.9459C447.332 49.7102 449.339 52.5696 451.22 55.5167L450.799 55.7858C452.665 58.7097 454.408 61.7202 456.02 64.81L456.463 64.5788C458.073 67.6647 459.552 70.8294 460.894 74.0655L460.432 74.257C461.759 77.4551 462.95 80.7234 463.999 84.0545L464.476 83.9043C465.519 87.2152 466.423 90.5881 467.179 94.016L466.691 94.1238C467.435 97.4951 468.037 100.92 468.49 104.392L468.986 104.327C469.434 107.761 469.736 111.241 469.888 114.76L469.388 114.782C469.462 116.512 469.5 118.252 469.5 120V124.818H470V134.454H469.5V144.091H470V153.727H469.5V163.364H470V173H469.5V182.636H470V192.273H469.5V201.909H470V211.545H469.5V221.182H470V230.818H469.5V240.455H470V250.091H469.5V259.727H470V269.364H469.5V279H470V288.636H469.5V298.273H470V307.909H469.5V317.545H470V327.182H469.5V331.5H465.104V332H455.312V331.5H445.521V332H435.729V331.5H425.937V332H416.146V331.5H406.354V332H396.562V331.5H386.771V332H376.979V331.5H367.187V332H357.396V331.5H347.604V332H337.812V331.5H328.021V332H318.229V331.5H308.438V332H298.646V331.5H288.854V332H279.063V331.5H269.271V332H259.479V331.5H249.688V332H239.896V331.5H230.104V332H220.313V331.5H210.521V332H200.729V331.5H190.938V332H181.146V331.5H171.354V332H161.563V331.5H151.771V332H141.979V331.5H132.188V332H122.396V331.5H112.604V332H102.812V331.5H93.0208V332H83.2292V331.5H73.4375V332H63.6458V331.5H53.8542V332H44.0625V331.5H34.2708V332H24.4792V331.5H14.6875V332H4.89583V331.5H0.5V327.118H0V317.353H0.5V307.588H0V297.824H0.5V288.059H0V278.294H0.5V268.529H0V258.765H0.5V249H0V239.235H0.5V229.471H0V219.706H0.5V209.941H0V200.177H0.5V190.412H0V180.647H0.5V170.882H0V161.118H0.5V151.353H0V141.588H0.5V131.824H0V122.059H0.5V112.294H0V102.529H0.5V92.7647H0V83H0.5V73.2353H0V63.4706H0.5V53.7059H0V43.9412H0.5V34.1765H0V24.4118H0.5V14.6471H0Z" stroke="#FDFDFD" stroke-linejoin="round" stroke-dasharray="10 10"/>
</svg>
